<svg xmlns="http://www.w3.org/2000/svg" width="16" height="16" viewBox="0 0 16 16" fill="none" stroke-width="1.5"><desc>AI翻译</desc><g id="group-0" stroke="#333333" fill="#333333"><path d="M14.25 5.25L14.25 3.25C14.25 2.42157 13.5784 1.75 12.75 1.75L10.75 1.75" stroke-linecap="round" fill="none" vector-effect="non-scaling-stroke"/><path d="M1.75 10.75L1.75004 12.75C1.75006 13.5784 2.42163 14.25 3.25004 14.25L5.25 14.25" stroke-linecap="round" fill="none" vector-effect="non-scaling-stroke"/></g><g id="group-1" stroke="#333333" fill="#333333"><path d="M8.25 9.05C8.25 8.88431 8.38431 8.75 8.55 8.75H13.95C14.1157 8.75 14.25 8.88431 14.25 9.05V11.95C14.25 12.1157 14.1157 12.25 13.95 12.25H8.55C8.38431 12.25 8.25 12.1157 8.25 11.95V9.05Z" fill="none" vector-effect="non-scaling-stroke"/><path d="M11.25 6.75V14.25" stroke-linecap="round" fill="none" vector-effect="non-scaling-stroke"/><path d="M2 7.50004L4.16513 1.75H4.83487L7 7.50004" stroke-linecap="round" stroke-linejoin="round" fill="none" vector-effect="non-scaling-stroke"/><path d="M2.75 5.75H6" stroke-linecap="round" stroke-linejoin="round" fill="none" vector-effect="non-scaling-stroke"/></g></svg>